# xmcd
#
# Track frame offsets:
#	300
#	12690
#	24214
#	42272
#	53281
#	66741
#	84019
#	98880
#	111313
#	124477
#	140431
#	153166
#
# Disc length: 2202 seconds
#
# Revision: 1
# Processed by: cddbd v1.5.2PL0 Copyright (c) Steve Scherf et al.
# Submitted via: audiograbber 1.83.01
#
DISCID=9b08960c
DTITLE=Freddy Fender - Freddy Fender: The Best Of
DYEAR=2006
DGENRE=Country
TTITLE0=Wasted Days And Wasted Nights
TTITLE1=Before The Next Teadrop Falls
TTITLE2=Secret Love (Live)
TTITLE3=The Chokin' Kind
TTITLE4=I Can't Stop Loving You (Live)
TTITLE5=Jambayla (On the Bayou) (Live)
TTITLE6=La Bamba (Live)
TTITLE7=Vaya Con Dios
TTITLE8=Since I Met You Baby
TTITLE9=Whiskey River (Live)
TTITLE10=My Special Prayer
TTITLE11=Walking Piece Of Heaven (Live)
EXTD=
EXTT0=
EXTT1=
EXTT2=
EXTT3=
EXTT4=
EXTT5=
EXTT6=
EXTT7=
EXTT8=
EXTT9=
EXTT10=
EXTT11=
PLAYORDER=
